REM DIRINDEX 1\2,1\3,1\4,1\5
REM DIRNAME "folder01","folder02","folder03","folder04","folder05"
TITLE ""
FILE "1Q_t_0129-0138.mp3" MP3
  TRACK 01 AUDIO
    TITLE "3:cjc172_1300"
    INDEX 01 00:00:00
  TRACK 02 AUDIO
    TITLE "0:"
    INDEX 01 00:01:06
  TRACK 03 AUDIO
    TITLE "4:cjc172_1301"
    INDEX 01 00:01:23
  TRACK 04 AUDIO
    TITLE "0:"
    INDEX 01 00:02:21
  TRACK 05 AUDIO
    TITLE "5:cjc172_1302"
    INDEX 01 00:02:37
  TRACK 06 AUDIO
    TITLE "0:"
    INDEX 01 00:09:60
  TRACK 07 AUDIO
    TITLE "3:cjc172_1303"
    INDEX 01 00:10:36
  TRACK 08 AUDIO
    TITLE "0:"
    INDEX 01 00:11:51
  TRACK 09 AUDIO
    TITLE "4:cjc172_1304"
    INDEX 01 00:11:67
  TRACK 10 AUDIO
    TITLE "0:"
    INDEX 01 00:13:19
  TRACK 11 AUDIO
    TITLE "5:cjc172_1305"
    INDEX 01 00:13:34
  TRACK 12 AUDIO
    TITLE "0:"
    INDEX 01 00:20:72
  TRACK 13 AUDIO
    TITLE "3:cjc172_1306"
    INDEX 01 00:21:52
  TRACK 14 AUDIO
    TITLE "0:"
    INDEX 01 00:23:03
  TRACK 15 AUDIO
    TITLE "4:cjc172_1307"
    INDEX 01 00:23:21
  TRACK 16 AUDIO
    TITLE "0:"
    INDEX 01 00:25:40
  TRACK 17 AUDIO
    TITLE "5:cjc172_1308"
    INDEX 01 00:25:53
  TRACK 18 AUDIO
    TITLE "0:"
    INDEX 01 00:32:10
  TRACK 19 AUDIO
    TITLE "3:cjc172_1309"
    INDEX 01 00:32:63
  TRACK 20 AUDIO
    TITLE "0:"
    INDEX 01 00:34:21
  TRACK 21 AUDIO
    TITLE "4:cjc172_1310"
    INDEX 01 00:34:35
  TRACK 22 AUDIO
    TITLE "0:"
    INDEX 01 00:36:34
  TRACK 23 AUDIO
    TITLE "5:cjc172_1311"
    INDEX 01 00:36:47
  TRACK 24 AUDIO
    TITLE "0:"
    INDEX 01 00:44:17
  TRACK 25 AUDIO
    TITLE "3:cjc172_1312"
    INDEX 01 00:44:70
  TRACK 26 AUDIO
    TITLE "0:"
    INDEX 01 00:45:68
  TRACK 27 AUDIO
    TITLE "4:cjc172_1313"
    INDEX 01 00:46:10
  TRACK 28 AUDIO
    TITLE "0:"
    INDEX 01 00:48:07
  TRACK 29 AUDIO
    TITLE "5:cjc172_1314"
    INDEX 01 00:48:23
  TRACK 30 AUDIO
    TITLE "0:"
    INDEX 01 00:54:61
  TRACK 31 AUDIO
    TITLE "3:cjc172_1315"
    INDEX 01 00:55:39
  TRACK 32 AUDIO
    TITLE "0:"
    INDEX 01 00:57:12
  TRACK 33 AUDIO
    TITLE "4:cjc172_1316"
    INDEX 01 00:57:28
  TRACK 34 AUDIO
    TITLE "0:"
    INDEX 01 01:01:06
  TRACK 35 AUDIO
    TITLE "5:cjc172_1317"
    INDEX 01 01:01:22
  TRACK 36 AUDIO
    TITLE "0:"
    INDEX 01 01:08:12
  TRACK 37 AUDIO
    TITLE "3:cjc172_1318"
    INDEX 01 01:08:67
  TRACK 38 AUDIO
    TITLE "0:"
    INDEX 01 01:10:21
  TRACK 39 AUDIO
    TITLE "4:cjc172_1319"
    INDEX 01 01:10:36
  TRACK 40 AUDIO
    TITLE "0:"
    INDEX 01 01:13:11
  TRACK 41 AUDIO
    TITLE "5:cjc172_1320"
    INDEX 01 01:13:25
  TRACK 42 AUDIO
    TITLE "0:"
    INDEX 01 01:21:03
  TRACK 43 AUDIO
    TITLE "3:cjc172_1321"
    INDEX 01 01:21:54
  TRACK 44 AUDIO
    TITLE "0:"
    INDEX 01 01:22:71
  TRACK 45 AUDIO
    TITLE "4:cjc172_1322"
    INDEX 01 01:23:10
  TRACK 46 AUDIO
    TITLE "0:"
    INDEX 01 01:24:74
  TRACK 47 AUDIO
    TITLE "5:cjc172_1323"
    INDEX 01 01:25:14
  TRACK 48 AUDIO
    TITLE "0:"
    INDEX 01 01:31:58
  TRACK 49 AUDIO
    TITLE "3:cjc172_1324"
    INDEX 01 01:32:36
  TRACK 50 AUDIO
    TITLE "0:"
    INDEX 01 01:33:59
  TRACK 51 AUDIO
    TITLE "4:cjc172_1325"
    INDEX 01 01:34:02
  TRACK 52 AUDIO
    TITLE "0:"
    INDEX 01 01:37:10
  TRACK 53 AUDIO
    TITLE "5:cjc172_1326"
    INDEX 01 01:37:23
  TRACK 54 AUDIO
    TITLE "0:"
    INDEX 01 01:43:26
  TRACK 55 AUDIO
    TITLE "3:cjc172_1327"
    INDEX 01 01:44:06
  TRACK 56 AUDIO
    TITLE "0:"
    INDEX 01 01:45:11
  TRACK 57 AUDIO
    TITLE "4:cjc172_1328"
    INDEX 01 01:45:27
  TRACK 58 AUDIO
    TITLE "0:"
    INDEX 01 01:47:71
  TRACK 59 AUDIO
    TITLE "5:cjc172_1329"
    INDEX 01 01:48:12
  TRACK 60 AUDIO
    TITLE "0:"
    INDEX 01 01:54:47
